<?xml version="1.0" encoding="UTF-8" standalone="no"?>
<!DOCTYPE svg PUBLIC "-//W3C//DTD SVG 1.1//EN" "http://www.w3.org/Graphics/SVG/1.1/DTD/svg11.dtd">
<svg width="100%" height="100%" viewBox="0 0 116 115" version="1.1" xmlns="http://www.w3.org/2000/svg" xmlns:xlink="http://www.w3.org/1999/xlink" xml:space="preserve" xmlns:serif="http://www.serif.com/" style="fill-rule:evenodd;clip-rule:evenodd;stroke-linejoin:round;stroke-miterlimit:2;">
    <g id="Artboard1" transform="matrix(1,0,0,1,-8.70255,-9.70255)">
        <rect x="8.703" y="9.703" width="115.795" height="114.795" style="fill:none;"/>
        <g transform="matrix(1,0,0,1,0.702548,0.702548)">
            <path d="M28.673,35.071C28.673,35.071 28.399,33.509 28.404,32.721C28.411,31.725 28.498,30.27 28.714,29.094C28.929,27.925 29.269,26.761 29.701,25.667C30.132,24.574 30.675,23.514 31.303,22.528C31.931,21.541 32.661,20.602 33.469,19.751C34.277,18.898 35.185,18.1 36.153,17.413C37.125,16.722 38.196,16.1 39.301,15.607C40.411,15.113 41.626,14.714 42.808,14.446C43.983,14.179 45.208,14.029 46.396,13.997C47.579,13.966 48.788,14.06 49.937,14.254C51.078,14.447 52.217,14.761 53.289,15.161C54.359,15.559 55.523,16.158 56.371,16.653C57.09,17.073 58.38,18.135 58.38,18.135C58.38,18.135 58.597,17.729 58.762,17.574C59.581,16.81 62.081,14.457 63.295,13.549C64.122,12.93 65.092,12.518 66.046,12.122C67.006,11.723 68.53,11.322 69.051,11.156C69.092,11.143 69.134,11.133 69.176,11.128C69.814,11.053 71.657,10.723 72.879,10.704C74.092,10.685 75.33,10.798 76.506,11.014C77.675,11.229 78.839,11.569 79.933,12.001C81.026,12.432 82.086,12.975 83.072,13.603C84.059,14.231 84.998,14.961 85.849,15.769C86.702,16.577 87.5,17.485 88.187,18.453C88.878,19.425 89.5,20.496 89.993,21.601C90.487,22.71 90.907,24.078 91.154,25.107C91.363,25.98 91.474,27.78 91.474,27.78C91.474,27.78 93.072,27.5 93.879,27.504C94.884,27.51 96.33,27.598 97.506,27.814C98.675,28.029 99.839,28.369 100.933,28.801C102.026,29.232 103.086,29.775 104.072,30.403C105.059,31.031 105.998,31.761 106.849,32.569C107.702,33.377 108.5,34.285 109.187,35.253C109.878,36.225 110.513,37.338 110.993,38.401C111.459,39.437 111.86,40.518 112.064,41.635C112.335,43.116 112.677,45.688 112.618,47.286C112.568,48.632 111.708,51.223 111.708,51.223C111.708,51.223 113.314,51.813 114.048,52.244C114.948,52.773 116.17,53.578 117.113,54.396C118.059,55.217 118.955,56.155 119.722,57.165C120.495,58.183 121.201,59.322 121.752,60.502C122.308,61.692 122.837,63.664 123.057,64.31C123.064,64.331 123.069,64.353 123.072,64.376C123.145,65.004 123.477,66.857 123.496,68.079C123.515,69.292 123.402,70.53 123.186,71.706C122.971,72.875 122.631,74.039 122.199,75.133C121.768,76.226 121.225,77.286 120.597,78.272C119.969,79.259 119.239,80.198 118.431,81.049C117.623,81.902 116.715,82.7 115.747,83.387C114.775,84.078 113.704,84.7 112.599,85.193C111.486,85.688 109.667,86.165 109.069,86.362C109.051,86.368 109.032,86.373 109.013,86.374C108.309,86.413 104.844,86.596 104.844,86.596C104.844,86.596 105.877,87.646 106.287,88.253C106.829,89.054 107.6,90.296 108.093,91.401C108.588,92.514 108.995,93.723 109.262,94.931C109.529,96.139 109.675,97.425 109.696,98.649C109.716,99.86 109.601,101.099 109.385,102.271C109.171,103.435 108.83,104.594 108.402,105.683C107.974,106.771 107.436,107.825 106.813,108.809C106.191,109.793 105.468,110.733 104.667,111.585C103.863,112.44 102.959,113.247 101.994,113.939C101.023,114.637 99.947,115.273 98.837,115.771C97.716,116.275 96.465,116.69 95.269,116.962C94.087,117.23 92.855,117.373 91.66,117.402C90.47,117.432 89.258,117.339 88.098,117.141C86.941,116.944 85.79,116.626 84.702,116.214C83.613,115.802 82.554,115.279 81.568,114.669C80.581,114.059 79.407,113.087 78.78,112.553C78.411,112.238 77.81,111.466 77.81,111.466L76.33,111.587C76.33,111.587 75.707,113.275 75.256,114.048C74.718,114.969 73.922,116.17 73.104,117.113C72.283,118.059 71.345,118.955 70.335,119.722C69.317,120.495 68.178,121.201 66.998,121.752C65.808,122.308 63.836,122.837 63.19,123.057C63.169,123.064 63.147,123.069 63.124,123.072C62.496,123.145 60.643,123.477 59.421,123.496C58.208,123.515 56.97,123.402 55.794,123.186C54.625,122.971 53.461,122.631 52.367,122.199C51.274,121.768 50.214,121.225 49.228,120.597C48.241,119.969 47.302,119.239 46.451,118.431C45.598,117.623 44.8,116.715 44.113,115.747C43.422,114.775 42.8,113.704 42.307,112.599C41.812,111.486 41.34,109.692 41.138,109.069C41.116,109.002 41.099,108.932 41.094,108.861C41.064,108.426 40.96,106.458 40.96,106.458L33.767,102.116C33.767,102.116 32.142,102.4 31.321,102.396C30.309,102.391 28.87,102.302 27.694,102.086C26.525,101.871 25.361,101.531 24.267,101.099C23.174,100.668 22.114,100.125 21.128,99.497C20.141,98.869 19.202,98.139 18.351,97.331C17.498,96.523 16.7,95.615 16.013,94.647C15.322,93.675 14.7,92.604 14.207,91.499C13.713,90.391 13.309,89.202 13.049,88.002C12.78,86.762 12.603,85.357 12.593,84.058C12.582,82.766 12.728,81.443 12.985,80.203C13.24,78.975 13.641,77.753 14.134,76.618C14.625,75.486 15.242,74.395 15.945,73.39C16.649,72.385 17.862,71.125 18.354,70.587C18.509,70.418 18.899,70.164 18.899,70.164L18.722,69.06C18.722,69.06 17.006,68.283 16.331,67.649C15.28,66.662 13.298,64.35 12.414,63.139C11.808,62.307 11.409,61.336 11.028,60.38C10.646,59.422 10.328,58.414 10.125,57.394C9.904,56.284 9.723,54.938 9.704,53.721C9.686,52.508 9.798,51.27 10.014,50.094C10.229,48.925 10.569,47.761 11.001,46.667C11.432,45.574 11.975,44.514 12.603,43.528C13.231,42.541 13.961,41.602 14.769,40.751C15.577,39.898 16.485,39.1 17.453,38.413C18.425,37.722 19.496,37.1 20.601,36.607C21.714,36.112 23.521,35.638 24.131,35.438C24.173,35.424 24.216,35.415 24.26,35.41C24.919,35.339 27.345,35.068 28.08,35.011C28.278,34.996 28.673,35.071 28.673,35.071Z" style="fill:white;"/>
        </g>
        <g transform="matrix(1,0,0,1,0.702548,0.702548)">
            <path d="M58.3,83.7L60.1,96.5C62.2,96.7 64.1,97.8 65.5,99.4L82.8,98C82.8,97 83.2,96 83.6,95.1L61.5,81.8C60.6,82.7 59.5,83.3 58.3,83.7ZM99.8,61.7L96.4,54L96.1,54C94.2,54.4 92.3,54.2 90.6,53.4L83.7,65.9C85.9,66.8 87.6,68.7 88.4,71.1L96.7,69.5C96.2,66.5 97.5,63.5 99.8,61.6L99.8,61.7ZM99,52.8L102.3,60.3C107,58.7 112.2,61.6 113.3,66.5C114.3,71.1 111.4,75.6 106.9,76.6C103.2,77.4 99.4,75.7 97.7,72.5L88.8,74.2C88.8,77.9 86,81.3 82.2,82.1C77.8,83.1 73.4,80.4 72.2,76.1L64.1,77.1C64.1,78 63.7,78.8 63.3,79.6L85.3,92.9C86.4,91.8 87.8,91 89.4,90.7C94,89.7 98.5,92.6 99.5,97.1C100.5,101.6 97.6,106.2 93.1,107.2C88.6,108.2 84.2,105.5 83.1,101L67.2,102.3C68.8,107 65.9,112.2 61,113.3C56.4,114.3 51.9,111.4 50.9,106.9C50.5,104.9 50.9,102.9 51.6,101.2L35.2,91.3C34.5,91.7 33.7,92 32.9,92.2C28.3,93.2 23.8,90.3 22.8,85.8C21.7,81 25.1,76.2 29.9,75.6L27.7,61.9C24,61.7 20.7,59.1 19.9,55.3C18.9,50.7 21.8,46.2 26.3,45.2C28.7,44.7 31.2,45.2 33,46.6L40.2,37.7C39.4,36.7 38.9,35.6 38.6,34.3C37.6,29.7 40.5,25.2 45,24.2C49.4,23.2 53.8,25.9 55,30.2L64.7,29C64.7,25.2 67.4,21.8 71.3,20.9C75.9,19.9 80.4,22.8 81.4,27.3C81.9,29.5 81.4,31.6 80.4,33.4L88.5,39.7C89.5,38.8 90.8,38.1 92.3,37.7C96.9,36.7 101.4,39.6 102.4,44.1C103.3,47.4 101.8,50.9 99,52.8ZM80.8,65.4C79.2,65.4 77.5,65.7 76.1,66.6L66.5,59C67.4,57.7 68,56.2 68.1,54.6L87,50.2C87.3,50.8 87.7,51.3 88.2,51.7L80.8,65.4ZM64,74.1L71.9,73.2C71.9,71.5 72.7,69.8 73.8,68.5L64.3,61C62.8,62 61,62.5 59.2,62.4L58.1,67.6C61.2,68.4 63.5,71 64,74.1ZM48.1,79.3L39.3,82.1C39.8,84.7 39.1,87.3 37.5,89.2L53.3,98.7C54.3,97.7 55.6,97 57.1,96.7L55.3,84.1C52.3,84 49.5,82.1 48.1,79.3ZM38.3,79.4L47.3,76.6C47.1,74.6 47.6,72.7 48.7,71.1L33.2,60C32.4,60.6 31.6,61 30.6,61.3L32.8,75.5C35.1,76 37.1,77.4 38.3,79.4ZM78.6,35.4C76.3,37.3 73.1,37.9 70.3,36.9L65.1,47.5C66.4,48.6 67.3,50 67.8,51.7L85.9,47.5C85.5,45.5 85.9,43.5 86.7,41.8L78.6,35.4ZM55.2,67.2L56.4,61.7C53.6,60.5 51.6,57.9 51.2,54.9L36.4,54.9C36.2,56 35.8,57 35.2,57.9L50.7,68.9C52,67.9 53.6,67.3 55.2,67.2ZM67.8,35.4C66.6,34.4 65.7,33.1 65.2,31.6L55.4,32.8C55.2,35.3 54,37.5 52,39L56.7,46C58.6,45.3 60.7,45.3 62.7,46L67.8,35.4ZM35.1,48.4C35.9,49.5 36.4,50.8 36.5,52.1L51.4,52.1C51.8,50.2 52.8,48.7 54.1,47.5L49.3,40.3C47,41 44.5,40.6 42.4,39.4L35.1,48.4Z" style="fill:rgb(130,205,226);"/>
        </g>
    </g>
</svg>
