<?xml version="1.0" encoding="UTF-8" standalone="no"?>
<!-- Created with Inkscape (http://www.inkscape.org/) -->

<svg
   width="79.660782mm"
   height="40.000004mm"
   viewBox="0 0 79.660782 40.000004"
   version="1.1"
   id="svg5"
   inkscape:version="1.1.2 (0a00cf5, 2022-02-04)"
   sodipodi:docname="logo-osl.svg"
   xmlns:inkscape="http://www.inkscape.org/namespaces/inkscape"
   xmlns:sodipodi="http://sodipodi.sourceforge.net/DTD/sodipodi-0.dtd"
   xmlns="http://www.w3.org/2000/svg"
   xmlns:svg="http://www.w3.org/2000/svg">
  <sodipodi:namedview
     id="namedview7"
     pagecolor="#ffffff"
     bordercolor="#666666"
     borderopacity="1.0"
     inkscape:pageshadow="2"
     inkscape:pageopacity="0.0"
     inkscape:pagecheckerboard="0"
     inkscape:document-units="mm"
     showgrid="false"
     fit-margin-top="0"
     fit-margin-left="0"
     fit-margin-right="0"
     fit-margin-bottom="0"
     inkscape:zoom="2.5620932"
     inkscape:cx="147.73077"
     inkscape:cy="111.43233"
     inkscape:window-width="1846"
     inkscape:window-height="1016"
     inkscape:window-x="74"
     inkscape:window-y="27"
     inkscape:window-maximized="1"
     inkscape:current-layer="layer1" />
  <defs
     id="defs2">
    <clipPath
       clipPathUnits="userSpaceOnUse"
       id="clipPath838">
      <path
         d="M 0,300 H 600 V 0 H 0 Z"
         id="path836" />
    </clipPath>
  </defs>
  <g
     inkscape:label="Capa 1"
     inkscape:groupmode="layer"
     id="layer1">
    <g
       id="g3014"
       transform="matrix(0.01569046,0,0,-0.01569046,0,40)">
      <path
         d="m 1305.58,1673.19 v -131.64 c 0,-22.72 -18.43,-41.15 -41.15,-41.15 -22.73,0 -41.15,18.43 -41.15,41.15 v 131.64 c -39.08,16.17 -66.58,54.63 -66.58,99.55 0,59.49 48.23,107.72 107.73,107.72 59.5,0 107.73,-48.23 107.73,-107.72 0,-44.92 -27.51,-83.38 -66.58,-99.55 z m -45.84,469.1 c -250.37,0 -453.338,-202.97 -453.338,-453.34 0,-250.37 202.968,-453.34 453.338,-453.34 250.37,0 453.34,202.97 453.34,453.34 0,250.37 -202.97,453.34 -453.34,453.34"
         style="fill:#8fd23d;fill-opacity:1;fill-rule:nonzero;stroke:none"
         id="path3016" />
      <path
         d="m 1291.54,2548.64 v 0.68 h -26.89 c 9.02,-0.01 17.94,-0.41 26.89,-0.68"
         style="fill:#6ec62e;fill-opacity:1;fill-rule:nonzero;stroke:none"
         id="path3018" />
      <path
         d="m 405.543,1690.44 c 0,474.27 384.414,858.76 858.657,858.88 H 202.77 C 90.7852,2549.32 0,2458.53 0,2346.55 V 1034.33 C 0,922.34 90.7852,831.559 202.77,831.559 H 1264.2 C 789.957,831.68 405.543,1216.16 405.543,1690.44"
         style="fill:#6ec62e;fill-opacity:1;fill-rule:nonzero;stroke:none"
         id="path3020" />
      <path
         d="m 1264.65,831.559 h 26.89 v 0.679 c -8.95,-0.277 -17.87,-0.679 -26.89,-0.679"
         style="fill:#6ec62e;fill-opacity:1;fill-rule:nonzero;stroke:none"
         id="path3022" />
      <path
         d="m 4498.59,1898.49 c -50.46,0 -91.52,-41.05 -91.52,-91.52 0,-50.45 41.06,-91.5 91.52,-91.5 h 91.52 v 91.5 c 0,50.47 -41.06,91.52 -91.52,91.52"
         style="fill:#f9dd06;fill-opacity:1;fill-rule:nonzero;stroke:none"
         id="path3024" />
      <path
         d="m 4734.16,1665.4 h -93.99 v -487.82 c 21.2,-1.5 42.51,-2.53 64.08,-2.53 h 29.91 v 490.35"
         style="fill:#f9dd06;fill-opacity:1;fill-rule:nonzero;stroke:none"
         id="path3026" />
      <path
         d="m 4967.26,1806.97 c 0,50.47 -41.05,91.52 -91.51,91.52 -50.47,0 -91.52,-41.05 -91.52,-91.52 v -91.5 h 91.52 c 50.46,0 91.51,41.05 91.51,91.5"
         style="fill:#f9dd06;fill-opacity:1;fill-rule:nonzero;stroke:none"
         id="path3028" />
      <path
         d="M 4874.25,2549.32 H 3801.5 V 2077.8 c 0,-459.09 344.55,-838.97 788.61,-895.28 v 482.88 h -91.52 c -78.07,0 -141.58,63.51 -141.58,141.57 0,78.08 63.51,141.58 141.58,141.58 78.07,0 141.58,-63.5 141.58,-141.58 v -91.5 h 93.99 v 91.5 c 0,78.08 63.51,141.58 141.59,141.58 78.07,0 141.58,-63.5 141.58,-141.58 0,-78.06 -63.51,-141.57 -141.58,-141.57 h -91.52 v -490.35 h 292.79 v 1171.5 c 0,111.99 -90.78,202.77 -202.77,202.77"
         style="fill:#f9dd06;fill-opacity:1;fill-rule:nonzero;stroke:none"
         id="path3030" />
      <path
         d="M 4319.82,831.559 C 3787.79,996.012 3400.16,1492.48 3400.16,2077.8 v 471.52 h -779.52 c -119.32,-53.86 -202.61,-173.89 -202.61,-313.08 0,-189.33 154.03,-343.36 343.37,-343.36 412.59,0 748.25,-335.67 748.25,-748.25 0,-111.75 -24.79,-217.751 -68.9,-313.071 h 879.07"
         style="fill:#49a8e2;fill-opacity:1;fill-rule:nonzero;stroke:none"
         id="path3032" />
      <path
         d="m 2029.58,2080.43 c -10.69,50.29 -16.43,102.39 -16.43,155.81 0,111.75 24.8,217.76 68.9,313.08 h -817.4 c 333.78,-0.09 622.85,-190.7 764.93,-468.89"
         style="fill:#3e91c9;fill-opacity:1;fill-rule:nonzero;stroke:none"
         id="path3034" />
      <path
         d="m 3104.77,1144.63 c 0,189.33 -154.04,343.36 -343.37,343.36 -285.78,0 -534.56,161.11 -660.54,397.22 14.52,-62.61 22.45,-127.75 22.45,-194.77 0,-465.26 -370.01,-843.858 -831.78,-858.202 l 0.01,-0.687 h 1610.6 c 119.33,53.859 202.63,173.879 202.63,313.079"
         style="fill:#3e91c9;fill-opacity:1;fill-rule:nonzero;stroke:none"
         id="path3036" />
      <path
         d="m 47.2383,362.461 c 0,-131.582 60.0707,-194.34 163.3397,-194.34 103.274,0 163.344,62.758 163.344,194.34 0,132.34 -60.07,195.109 -163.344,195.109 -103.269,0 -163.3397,-62.769 -163.3397,-195.109 z M 0,362.461 c 0,159.988 79.6367,236.93 210.578,236.93 130.945,0 210.61,-76.942 210.61,-236.93 0,-158.621 -79.665,-236.223 -210.61,-236.223 C 79.6367,126.238 0,203.84 0,362.461"
         style="fill:#2e2f36;fill-opacity:1;fill-rule:nonzero;stroke:none"
         id="path3038" />
      <path
         d="m 630.008,166.09 c 62.105,0 97.195,39.129 97.195,123.492 0,84.367 -36.437,122.84 -98.543,122.84 -49.957,0 -91.808,-35.07 -91.808,-122.84 0,-87.062 40.503,-123.492 93.156,-123.492 z M 538.223,425.941 V 404.34 c 12.808,22.969 46.55,47.262 91.785,47.262 87.742,0 141.082,-51.332 141.082,-162.02 0,-110.691 -53.34,-162.684 -141.082,-162.684 -45.235,0 -77.633,24.293 -91.785,47.274 V 21.6016 C 538.223,10.1602 528.086,0 516.625,0 505.137,0 495.023,10.1602 495.023,21.6016 V 425.941 c 0,12.141 10.114,21.598 21.602,21.598 11.461,0 21.598,-9.457 21.598,-21.598"
         style="fill:#2e2f36;fill-opacity:1;fill-rule:nonzero;stroke:none"
         id="path3040" />
      <path
         d="m 957.57,412.422 c -58.726,0 -91.125,-37.762 -95.191,-97.832 h 181.591 c 0,48.582 -16.88,97.832 -86.4,97.832 z m 0,39.18 c 108,0 128.91,-85.731 128.91,-131.633 0,-19.559 0,-43.188 -27.01,-43.188 H 862.379 c 0,-66.84 38.473,-110.031 101.922,-110.031 39.159,0 62.109,14.84 81.009,29.012 4.04,2.699 6.74,4.07 12.15,4.07 10.8,0 19.57,-8.793 19.57,-19.562 0,-7.481 -3.38,-11.489 -7.42,-15.559 -10.14,-10.109 -45.24,-37.813 -105.309,-37.813 -89.778,0 -145.781,49.301 -145.781,162.684 0,103.93 51.277,162.02 139.05,162.02"
         style="fill:#2e2f36;fill-opacity:1;fill-rule:nonzero;stroke:none"
         id="path3042" />
      <path
         d="M 1410.63,332.121 V 151.91 c 0,-12.148 -9.45,-21.601 -21.6,-21.601 -12.14,0 -21.6,9.453 -21.6,21.601 v 171.422 c 0,53.309 -15.52,89.797 -81.01,89.797 -66.8,0 -89.75,-40.5 -89.75,-94.527 V 151.91 c 0,-12.148 -9.45,-21.601 -21.6,-21.601 -12.17,0 -21.6,9.453 -21.6,21.601 v 274.031 c 0,12.141 9.43,21.598 21.6,21.598 12.15,0 21.6,-9.457 21.6,-21.598 V 404.34 c 12.81,25.66 45.9,47.262 89.75,47.262 103.96,0 124.21,-62.102 124.21,-119.481"
         style="fill:#2e2f36;fill-opacity:1;fill-rule:nonzero;stroke:none"
         id="path3044" />
      <path
         d="m 1798.32,557.57 c -70.87,0 -97.86,-35.121 -97.86,-73.59 0,-112.07 255.13,-64.14 255.13,-226.769 0,-84.422 -58.04,-130.973 -162,-130.973 -76.94,0 -134.32,39.133 -157.26,83.043 -2.7,5.391 -3.38,8.078 -3.38,12.149 0,12.152 9.45,21.601 21.6,21.601 8.1,0 14.86,-4.07 18.9,-10.832 21.6,-35.058 60.76,-64.078 120.14,-64.078 74.26,0 116.11,29.68 116.11,89.09 0,126.187 -255.15,66.777 -255.15,226.769 0,62.102 45.23,115.411 143.77,115.411 64.11,0 116.1,-26.981 144.44,-69.52 2.72,-4.012 4.06,-8.082 4.06,-12.812 0,-12.137 -9.45,-21.598 -21.6,-21.598 -6.07,0 -12.14,2.039 -17.56,8.801 -20.25,24.949 -52.65,53.308 -109.34,53.308"
         style="fill:#2e2f36;fill-opacity:1;fill-rule:nonzero;stroke:none"
         id="path3046" />
      <path
         d="m 2148.17,451.602 c 60.07,0 93.13,-31.762 103.93,-46.602 3.38,-4.73 4.73,-8.078 4.73,-12.809 0,-11.48 -8.77,-19.562 -19.57,-19.562 -6.76,0 -11.49,2.691 -16.21,8.082 -10.12,11.48 -28.34,31.711 -72.88,31.711 -62.11,0 -95.19,-39.793 -95.19,-122.84 0,-84.363 33.08,-123.492 95.19,-123.492 39.13,0 62.76,17.531 78.29,29.019 4.73,3.352 8.11,4.723 12.83,4.723 10.78,0 19.57,-8.793 19.57,-19.562 0,-6.098 -2.03,-10.829 -8.79,-16.879 -14.84,-12.2 -47.24,-36.493 -101.9,-36.493 -87.08,0 -139.05,51.993 -139.05,162.684 0,110.688 51.97,162.02 139.05,162.02"
         style="fill:#2e2f36;fill-opacity:1;fill-rule:nonzero;stroke:none"
         id="path3048" />
      <path
         d="m 2369.71,151.91 c 0,-12.148 -9.45,-21.601 -21.6,-21.601 -12.14,0 -21.59,9.453 -21.59,21.601 v 274.031 c 0,12.141 9.45,21.598 21.59,21.598 12.15,0 21.6,-9.457 21.6,-21.598 z m -47.23,384.719 c 0,19.562 9.42,26.98 25.63,26.98 16.22,0 25.64,-7.418 25.64,-26.98 0,-16.219 -9.42,-25.668 -25.64,-25.668 -16.21,0 -25.63,9.449 -25.63,25.668"
         style="fill:#2e2f36;fill-opacity:1;fill-rule:nonzero;stroke:none"
         id="path3050" />
      <path
         d="m 2576.34,412.422 c -58.73,0 -91.13,-37.762 -95.19,-97.832 h 181.58 c 0,48.582 -16.9,97.832 -86.39,97.832 z m 0,39.18 c 107.99,0 128.91,-85.731 128.91,-131.633 0,-19.559 0,-43.188 -26.99,-43.188 h -197.11 c 0,-66.84 38.47,-110.031 101.92,-110.031 39.16,0 62.1,14.84 81.01,29.012 4.04,2.699 6.73,4.07 12.15,4.07 10.8,0 19.56,-8.793 19.56,-19.562 0,-7.481 -3.38,-11.489 -7.42,-15.559 -10.11,-10.109 -45.23,-37.813 -105.3,-37.813 -89.78,0 -145.78,49.301 -145.78,162.684 0,103.93 51.28,162.02 139.05,162.02"
         style="fill:#2e2f36;fill-opacity:1;fill-rule:nonzero;stroke:none"
         id="path3052" />
      <path
         d="M 3029.4,332.121 V 151.91 c 0,-12.148 -9.45,-21.601 -21.6,-21.601 -12.15,0 -21.6,9.453 -21.6,21.601 v 171.422 c 0,53.309 -15.52,89.797 -81.01,89.797 -66.8,0 -89.75,-40.5 -89.75,-94.527 V 151.91 c 0,-12.148 -9.45,-21.601 -21.6,-21.601 -12.17,0 -21.6,9.453 -21.6,21.601 v 274.031 c 0,12.141 9.43,21.598 21.6,21.598 12.15,0 21.6,-9.457 21.6,-21.598 V 404.34 c 12.81,25.66 45.89,47.262 89.75,47.262 103.96,0 124.21,-62.102 124.21,-119.481"
         style="fill:#2e2f36;fill-opacity:1;fill-rule:nonzero;stroke:none"
         id="path3054" />
      <path
         d="m 3229.37,451.602 c 60.07,0 93.13,-31.762 103.93,-46.602 3.38,-4.73 4.73,-8.078 4.73,-12.809 0,-11.48 -8.77,-19.562 -19.57,-19.562 -6.76,0 -11.48,2.691 -16.21,8.082 -10.11,11.48 -28.33,31.711 -72.88,31.711 -62.1,0 -95.19,-39.793 -95.19,-122.84 0,-84.363 33.09,-123.492 95.19,-123.492 39.13,0 62.77,17.531 78.29,29.019 4.73,3.352 8.11,4.723 12.81,4.723 10.83,0 19.59,-8.793 19.59,-19.562 0,-6.098 -2.03,-10.829 -8.76,-16.879 -14.87,-12.2 -47.27,-36.493 -101.93,-36.493 -87.08,0 -139.05,51.993 -139.05,162.684 0,110.688 51.97,162.02 139.05,162.02"
         style="fill:#2e2f36;fill-opacity:1;fill-rule:nonzero;stroke:none"
         id="path3056" />
      <path
         d="m 3527.2,412.422 c -58.72,0 -91.12,-37.762 -95.19,-97.832 h 181.59 c 0,48.582 -16.9,97.832 -86.4,97.832 z m 0,39.18 c 108,0 128.91,-85.731 128.91,-131.633 0,-19.559 0,-43.188 -26.99,-43.188 h -197.11 c 0,-66.84 38.47,-110.031 101.92,-110.031 39.16,0 62.11,14.84 81.01,29.012 4.04,2.699 6.74,4.07 12.15,4.07 10.8,0 19.57,-8.793 19.57,-19.562 0,-7.481 -3.38,-11.489 -7.42,-15.559 -10.12,-10.109 -45.24,-37.813 -105.31,-37.813 -89.77,0 -145.78,49.301 -145.78,162.684 0,103.93 51.28,162.02 139.05,162.02"
         style="fill:#2e2f36;fill-opacity:1;fill-rule:nonzero;stroke:none"
         id="path3058" />
      <path
         d="m 4402.39,252.48 v 28.309 h -95.17 c -43.88,0 -74.25,-18.187 -74.25,-57.328 0,-35.109 24.29,-57.371 76.94,-57.371 47.24,0 92.48,29.019 92.48,86.39 z m -157.96,124.161 c -6.73,-7.422 -11.46,-9.45 -17.53,-9.45 -10.8,0 -19.6,8.789 -19.6,19.618 0,4.722 1.35,8.082 3.38,11.429 18.91,29.731 55.35,53.364 112.04,53.364 78.32,0 121.52,-45.942 121.52,-114.75 V 151.191 c 0,-11.429 -9.46,-20.882 -20.94,-20.882 -11.46,0 -20.91,9.453 -20.91,20.882 v 24.348 c -16.88,-31.769 -56.04,-48.641 -96.54,-48.641 -71.53,0 -116.76,34.461 -116.76,96.563 0,59.359 45.23,95.141 118.13,95.141 h 95.17 v 18.25 c 0,45.886 -30.37,74.25 -79.67,74.25 -35.75,0 -57.35,-10.832 -78.29,-34.461"
         style="fill:#2e2f36;fill-opacity:1;fill-rule:nonzero;stroke:none"
         id="path3060" />
      <path
         d="m 4568.61,259.898 c 0,-64.136 37.1,-93.808 89.09,-93.808 62.11,0 95.17,39.129 95.17,123.492 0,83.047 -33.75,122.84 -95.17,122.84 -63.45,0 -89.09,-59.363 -89.09,-59.363 z m 227.45,29.684 c 0,-110.691 -51.3,-162.684 -138.36,-162.684 -76.94,0 -132.29,43.911 -132.29,133 v 334.774 c 0,12.137 9.43,21.59 21.6,21.59 12.15,0 21.6,-9.453 21.6,-21.59 V 407.691 c 15.5,21.598 48.59,43.911 91.79,43.911 87.08,0 135.66,-51.332 135.66,-162.02"
         style="fill:#2e2f36;fill-opacity:1;fill-rule:nonzero;stroke:none"
         id="path3062" />
      <path
         d="m 4899.5,369.219 c 0,-70.84 177.52,-44.52 177.52,-152.52 0,-61.437 -50.62,-89.09 -114.73,-89.09 -55.34,0 -97.88,26.332 -115.41,48.59 -3.39,4.731 -4.73,8.082 -4.73,12.801 0,10.832 8.76,19.57 19.56,19.57 4.04,0 9.46,-1.32 14.84,-6.699 20.94,-20.941 47.93,-33.09 85.74,-33.09 38.47,0 71.53,12.809 71.53,47.918 0,69.531 -177.52,41.832 -177.52,152.52 0,56.062 45.92,81.672 103.27,81.672 45.92,0 81.7,-15.5 102.61,-43.2 2.03,-2.691 4.73,-6.699 4.73,-12.8 0,-10.782 -8.77,-19.571 -19.57,-19.571 -3.38,0 -8.79,0.66 -14.18,6.039 -18.22,17.59 -38.47,28.36 -73.59,28.36 -30.36,0 -60.07,-9.449 -60.07,-40.5"
         style="fill:#2e2f36;fill-opacity:1;fill-rule:nonzero;stroke:none"
         id="path3064" />
      <path
         d="m 4128.53,133.109 h -115.72 c -89.65,0 -113.32,74.11 -113.32,113.321 v 330.871 c 0,12.5 10.13,22.679 22.67,22.679 12.5,0 22.63,-10.179 22.63,-22.679 V 246.43 c 0.14,-11.239 4.01,-67.969 68.02,-67.969 h 115.72 c 12.49,0 22.67,-10.18 22.67,-22.68 0,-12.543 -10.18,-22.672 -22.67,-22.672"
         style="fill:#2e2f36;fill-opacity:1;fill-rule:nonzero;stroke:none"
         id="path3066" />
    </g>
  </g>
</svg>
