<?xml version="1.0" encoding="UTF-8"?>
<svg xmlns="http://www.w3.org/2000/svg" width="452" height="205" viewBox="0 0 452 205">
  <defs>
    <linearGradient id="a" x1="50%" x2="23.443%" y1="82.276%" y2="44.914%">
      <stop offset="0%" stop-color="#FFD43B"/>
      <stop offset="100%" stop-color="#FFE873"/>
    </linearGradient>
    <linearGradient id="b" x1="0%" x2="74.521%" y1="0%" y2="64.11%">
      <stop offset="0%" stop-color="#5A9FD4"/>
      <stop offset="100%" stop-color="#306998"/>
    </linearGradient>
    <linearGradient id="c" x1="50%" x2="50%" y1="0%" y2="100%">
      <stop offset="0%" stop-color="#FAB161"/>
      <stop offset="100%" stop-color="#F76B1C"/>
    </linearGradient>
    <linearGradient id="d" x1="50%" x2="50%" y1="0%" y2="100%">
      <stop offset="0%" stop-color="#141D24"/>
      <stop offset="100%" stop-color="#3F7CAE"/>
    </linearGradient>
  </defs>
  <g fill="none" fill-rule="evenodd">
    <g transform="translate(.004 .4)">
      <path fill="url(#a)" d="M153.037836,52.251329 L153.037836,73.7036527 C153.037836,90.3353498 138.937374,104.33374 122.85819,104.333742 L74.6045376,104.333742 C61.3870541,104.333742 50.4495608,115.646124 50.449559,128.882858 L50.449559,174.884292 C50.449559,187.976565 61.8342011,195.677294 74.6045376,199.433408 C89.8967557,203.929923 104.561192,204.742557 122.85819,199.433408 C135.020416,195.912046 147.013174,188.825289 147.013168,174.884292 L147.013168,156.47246 L98.7595162,156.47246 L98.7595162,150.335181 L147.013168,150.335181 L171.168154,150.335181 C185.208374,150.335181 190.440336,140.541827 195.323115,125.842371 C200.366863,110.70951 200.152254,96.1568127 195.323115,76.7441395 C191.853302,62.7670153 185.22623,52.251329 171.168154,52.251329 L153.037836,52.251329 L153.037836,52.251329 Z M125.898676,168.747018 C130.906656,168.747024 134.963831,172.8504 134.963831,177.924779 C134.963828,183.017211 130.906651,187.15885 125.898676,187.15885 C120.908584,187.15885 116.833521,183.017211 116.833521,177.924779 C116.833525,172.8504 120.908579,168.747018 125.898676,168.747018 L125.898676,168.747018 Z"/>
      <path fill="url(#b)" d="M98.9510181,0.00165632008 C90.6923298,0.0400309573 82.8054674,0.744377791 75.8658404,1.97234222 C55.4225692,5.58399696 51.7108636,13.1435 51.7108618,27.0845113 L51.7108618,45.4963481 L100.020819,45.4963481 L100.020819,51.6336271 L51.7108618,51.6336271 L33.5805515,51.6336271 C19.540333,51.6336271 7.2463156,60.0726077 3.40090427,76.1264375 C-1.03472907,94.5278529 -1.23147352,106.010636 3.40090427,125.224669 C6.83494863,139.526852 15.0359117,149.717476 29.0761266,149.71748 L45.6861935,149.71748 L45.6861935,127.645797 C45.6861935,111.70031 59.4826056,97.6350701 75.8658404,97.6350665 L124.119492,97.6350665 C137.551599,97.6350665 148.274476,86.575507 148.274471,73.0859507 L148.274471,27.0845113 C148.274471,13.9922399 137.229657,4.15738938 124.119492,1.97234222 C115.820563,0.590879603 107.209706,-0.0367183172 98.9510181,0.00165632008 L98.9510181,0.00165632008 Z M72.8253536,14.8099534 C77.8154402,14.8099534 81.8905087,18.9515847 81.8905087,24.0440245 C81.8905051,29.1184141 77.8154402,33.2217902 72.8253536,33.2217902 C67.8173772,33.2217884 63.7601985,29.1184123 63.7601985,24.0440245 C63.7601967,18.9515865 67.8173772,14.8099534 72.8253536,14.8099534 L72.8253536,14.8099534 Z"/>
    </g>
    <g transform="translate(0 32)">
      <path fill="url(#c)" d="M50.4530929,105.992429 L72.3158743,72.8477651 C73.0710014,72.7723703 73.8356431,72.733736 74.6080715,72.733736 L122.861723,72.733736 C138.346428,72.7337342 151.996022,59.7513052 152.98416,43.9369937 L193.72515,98.8180341 C189.213795,110.939043 183.698708,118.735175 171.171688,118.735175 L147.016702,118.735175 L98.7630501,118.735175 L98.7630501,124.872454 L147.016702,124.872454 L147.016702,143.284286 C147.016707,157.225283 135.02395,164.31204 122.861723,167.833402 C104.564726,173.142551 89.9002895,172.329917 74.6080715,167.833402 C61.8377349,164.077288 50.4530929,156.376559 50.4530929,143.284286 L50.4530929,105.992429 Z M125.90221,137.147012 C120.912113,137.147012 116.837059,141.250394 116.837055,146.324773 C116.837055,151.417205 120.912118,155.558844 125.90221,155.558844 C130.910185,155.558844 134.967362,151.417205 134.967365,146.324773 C134.967365,141.250394 130.91019,137.147018 125.90221,137.147012 Z"/>
      <path fill="url(#d)" d="M45.6897273,100.074893 L14.3401039,54.8953344 L0.791233283,80.1787623 C1.35420307,84.3194279 2.22199924,88.7201796 3.40443809,93.624663 C6.83848246,107.926846 15.0394455,118.11747 29.0796605,118.117473 L45.6897273,118.117473 L45.6897273,100.074893 Z M76.8096496,66.0350604 L120.367493,0 L148.278005,37.5974644 L148.278005,41.4859446 C148.27801,54.9755009 137.555133,66.0350604 124.123026,66.0350604 L76.8096496,66.0350604 Z"/>
    </g>
    <g fill="#FFFCEA" stroke="#FFFCEA" transform="translate(0 41)">
      <path d="M100.966928 63.733736L74.7503732 158.875143C74.7029452 158.861265 74.6555114 158.847351 74.6080715 158.833402 61.8377349 155.077288 50.4530929 147.376559 50.4530929 134.284286L50.4530929 122.249579 82.7015924 63.733736 100.966928 63.733736zM102.088325 59.0350604L118.232263.447769165 85.9443875 59.0350604 102.088325 59.0350604zM4.01259752 93.0500593L12.8808667 56.7124674.987008835 81.230498C1.39518334 83.273181 1.86735313 85.3969586 2.40443809 87.624663 2.85691419 89.5091454 3.39214966 91.3222462 4.01259752 93.0500593z"/>
    </g>
    <path fill="#315C80" d="M247.28125,58.6953125 C247.28125,61.7422027 246.179699,64.1328038 243.976562,65.8671875 C241.773426,67.6015712 238.734394,68.46875 234.859375,68.46875 C230.984356,68.46875 227.812512,67.8671935 225.34375,66.6640625 L225.34375,61.3671875 C226.906258,62.1015662 228.566397,62.6796854 230.324219,63.1015625 C232.08204,63.5234396 233.718742,63.734375 235.234375,63.734375 C237.453136,63.734375 239.089838,63.3125042 240.144531,62.46875 C241.199224,61.6249958 241.726562,60.4921946 241.726562,59.0703125 C241.726562,57.7890561 241.242192,56.7031295 240.273438,55.8125 C239.304683,54.9218705 237.304703,53.8671936 234.273438,52.6484375 C231.148422,51.3828062 228.945319,49.9375081 227.664062,48.3125 C226.382806,46.6874919 225.742188,44.7343864 225.742188,42.453125 C225.742188,39.5937357 226.757802,37.3437582 228.789062,35.703125 C230.820323,34.0624918 233.546858,33.2421875 236.96875,33.2421875 C240.250016,33.2421875 243.515609,33.9609303 246.765625,35.3984375 L244.984375,39.96875 C241.937485,38.6874936 239.218762,38.046875 236.828125,38.046875 C235.015616,38.046875 233.64063,38.4414023 232.703125,39.2304688 C231.76562,40.0195352 231.296875,41.0624935 231.296875,42.359375 C231.296875,43.2500045 231.484373,44.0117156 231.859375,44.6445312 C232.234377,45.2773469 232.851558,45.8749972 233.710938,46.4375 C234.570317,47.0000028 236.117176,47.7421829 238.351562,48.6640625 C240.8672,49.7109427 242.710932,50.6874955 243.882812,51.59375 C245.054693,52.5000045 245.91406,53.5234318 246.460938,54.6640625 C247.007815,55.8046932 247.28125,57.1484298 247.28125,58.6953125 Z M274.585938,68 L271.234375,55.90625 C270.828123,54.6249936 270.093755,51.6484609 269.03125,46.9765625 L268.820312,46.9765625 C267.914058,51.1953336 267.195315,54.1874912 266.664062,55.953125 L263.21875,68 L257.125,68 L249.859375,42.078125 L255.484375,42.078125 L258.789062,54.8515625 C259.539066,58.0078283 260.070311,60.7109263 260.382812,62.9609375 L260.523438,62.9609375 C260.679688,61.8203068 260.917967,60.5117261 261.238281,59.0351562 C261.558595,57.5585864 261.835936,56.4531287 262.070312,55.71875 L266.007812,42.078125 L272.054688,42.078125 L275.875,55.71875 C276.109376,56.4843788 276.402342,57.6562421 276.753906,59.234375 C277.105471,60.8125079 277.3125,62.0390581 277.375,62.9140625 L277.5625,62.9140625 C277.796876,60.9921779 278.343746,58.3047048 279.203125,54.8515625 L282.554688,42.078125 L288.085938,42.078125 L280.773438,68 L274.585938,68 Z M298.046875,68 L292.539062,68 L292.539062,42.078125 L298.046875,42.078125 L298.046875,68 Z M292.210938,35.2109375 C292.210938,34.2265576 292.480466,33.4687527 293.019531,32.9375 C293.558596,32.4062473 294.32812,32.140625 295.328125,32.140625 C296.29688,32.140625 297.050779,32.4062473 297.589844,32.9375 C298.128909,33.4687527 298.398438,34.2265576 298.398438,35.2109375 C298.398438,36.1484422 298.128909,36.8867161 297.589844,37.4257812 C297.050779,37.9648464 296.29688,38.234375 295.328125,38.234375 C294.32812,38.234375 293.558596,37.9648464 293.019531,37.4257812 C292.480466,36.8867161 292.210938,36.1484422 292.210938,35.2109375 Z M323.335938,60.6171875 C323.335938,63.1484502 322.414072,65.089837 320.570312,66.4414062 C318.726553,67.7929755 316.085955,68.46875 312.648438,68.46875 C309.195295,68.46875 306.421885,67.9453177 304.328125,66.8984375 L304.328125,62.140625 C307.375015,63.546882 310.210924,64.25 312.835938,64.25 C316.226579,64.25 317.921875,63.2265727 317.921875,61.1796875 C317.921875,60.5234342 317.734377,59.9765647 317.359375,59.5390625 C316.984373,59.1015603 316.367192,58.6484398 315.507812,58.1796875 C314.648433,57.7109352 313.453133,57.1796905 311.921875,56.5859375 C308.937485,55.4296817 306.917974,54.2734433 305.863281,53.1171875 C304.808588,51.9609317 304.28125,50.4609467 304.28125,48.6171875 C304.28125,46.3984264 305.175772,44.6757874 306.964844,43.4492188 C308.753915,42.2226501 311.187485,41.609375 314.265625,41.609375 C317.312515,41.609375 320.195299,42.2265563 322.914062,43.4609375 L321.132812,47.609375 C318.335924,46.4531192 315.984385,45.875 314.078125,45.875 C311.17186,45.875 309.71875,46.7031167 309.71875,48.359375 C309.71875,49.1718791 310.097652,49.8593722 310.855469,50.421875 C311.613285,50.9843778 313.265612,51.7578076 315.8125,52.7421875 C317.953136,53.5703166 319.507808,54.3281216 320.476562,55.015625 C321.445317,55.7031284 322.16406,56.4960893 322.632812,57.3945312 C323.101565,58.2929732 323.335938,59.3671813 323.335938,60.6171875 Z M346.703125,60.6171875 C346.703125,63.1484502 345.781259,65.089837 343.9375,66.4414062 C342.093741,67.7929755 339.453142,68.46875 336.015625,68.46875 C332.562483,68.46875 329.789073,67.9453177 327.695312,66.8984375 L327.695312,62.140625 C330.742203,63.546882 333.578112,64.25 336.203125,64.25 C339.593767,64.25 341.289062,63.2265727 341.289062,61.1796875 C341.289062,60.5234342 341.101564,59.9765647 340.726562,59.5390625 C340.351561,59.1015603 339.734379,58.6484398 338.875,58.1796875 C338.015621,57.7109352 336.82032,57.1796905 335.289062,56.5859375 C332.304673,55.4296817 330.285162,54.2734433 329.230469,53.1171875 C328.175776,51.9609317 327.648438,50.4609467 327.648438,48.6171875 C327.648438,46.3984264 328.54296,44.6757874 330.332031,43.4492188 C332.121103,42.2226501 334.554672,41.609375 337.632812,41.609375 C340.679703,41.609375 343.562486,42.2265563 346.28125,43.4609375 L344.5,47.609375 C341.703111,46.4531192 339.351572,45.875 337.445312,45.875 C334.539048,45.875 333.085938,46.7031167 333.085938,48.359375 C333.085938,49.1718791 333.46484,49.8593722 334.222656,50.421875 C334.980473,50.9843778 336.6328,51.7578076 339.179688,52.7421875 C341.320323,53.5703166 342.874995,54.3281216 343.84375,55.015625 C344.812505,55.7031284 345.531248,56.4960893 346,57.3945312 C346.468752,58.2929732 346.703125,59.3671813 346.703125,60.6171875 Z M250.210938,92.09375 C250.210938,95.6718929 249.039074,98.414053 246.695312,100.320312 C244.351551,102.226572 241.015647,103.179688 236.6875,103.179688 L233.125,103.179688 L233.125,116 L227.523438,116 L227.523438,81.734375 L237.390625,81.734375 C241.671896,81.734375 244.878896,82.6093662 247.011719,84.359375 C249.144542,86.1093838 250.210938,88.687483 250.210938,92.09375 Z M233.125,98.46875 L236.101562,98.46875 C238.976577,98.46875 241.085931,97.968755 242.429688,96.96875 C243.773444,95.968745 244.445312,94.4062606 244.445312,92.28125 C244.445312,90.3124902 243.843756,88.8437548 242.640625,87.875 C241.437494,86.9062452 239.562513,86.421875 237.015625,86.421875 L233.125,86.421875 L233.125,98.46875 Z M252.53125,90.078125 L258.53125,90.078125 L263.804688,104.773438 C264.601566,106.867198 265.132811,108.835928 265.398438,110.679688 L265.585938,110.679688 C265.726563,109.820308 265.984373,108.77735 266.359375,107.550781 C266.734377,106.324213 268.718732,100.500052 272.3125,90.078125 L278.265625,90.078125 L267.179688,119.445312 C265.164052,124.835964 261.804711,127.53125 257.101562,127.53125 C255.882806,127.53125 254.695318,127.398439 253.539062,127.132812 L253.539062,122.773438 C254.367192,122.960938 255.312495,123.054688 256.375,123.054688 C259.031263,123.054688 260.898432,121.51564 261.976562,118.4375 L262.9375,116 L252.53125,90.078125 Z M291.859375,112.015625 C293.203132,112.015625 294.546868,111.80469 295.890625,111.382812 L295.890625,115.53125 C295.281247,115.796876 294.496099,116.01953 293.535156,116.199219 C292.574214,116.378907 291.57813,116.46875 290.546875,116.46875 C285.328099,116.46875 282.71875,113.718777 282.71875,108.21875 L282.71875,94.25 L279.179688,94.25 L279.179688,91.8125 L282.976562,89.796875 L284.851562,84.3125 L288.25,84.3125 L288.25,90.078125 L295.632812,90.078125 L295.632812,94.25 L288.25,94.25 L288.25,108.125 C288.25,109.453132 288.582028,110.433591 289.246094,111.066406 C289.91016,111.699222 290.781245,112.015625 291.859375,112.015625 Z M323.875,116 L318.34375,116 L318.34375,100.0625 C318.34375,98.06249 317.94141,96.5703174 317.136719,95.5859375 C316.332027,94.6015576 315.054696,94.109375 313.304688,94.109375 C310.992176,94.109375 309.292974,94.8007743 308.207031,96.1835938 C307.121088,97.5664132 306.578125,99.8827962 306.578125,103.132812 L306.578125,116 L301.070312,116 L301.070312,79.53125 L306.578125,79.53125 L306.578125,88.7890625 C306.578125,90.2734449 306.484376,91.8593666 306.296875,93.546875 L306.648438,93.546875 C307.398441,92.2968688 308.4414,91.3281284 309.777344,90.640625 C311.113288,89.9531216 312.671866,89.609375 314.453125,89.609375 C320.734406,89.609375 323.875,92.7734059 323.875,99.1015625 L323.875,116 Z M354.53125,102.992188 C354.53125,107.226584 353.445323,110.531238 351.273438,112.90625 C349.101552,115.281262 346.078144,116.46875 342.203125,116.46875 C339.781238,116.46875 337.640634,115.92188 335.78125,114.828125 C333.921866,113.73437 332.492193,112.164073 331.492188,110.117188 C330.492182,108.070302 329.992188,105.695326 329.992188,102.992188 C329.992188,98.7890415 331.070302,95.5078243 333.226562,93.1484375 C335.382823,90.7890507 338.421855,89.609375 342.34375,89.609375 C346.093769,89.609375 349.062489,90.8163942 351.25,93.2304688 C353.437511,95.6445433 354.53125,98.898417 354.53125,102.992188 Z M335.664062,102.992188 C335.664062,108.976592 337.874978,111.96875 342.296875,111.96875 C346.671897,111.96875 348.859375,108.976592 348.859375,102.992188 C348.859375,97.0702829 346.656272,94.109375 342.25,94.109375 C339.937488,94.109375 338.261724,94.8749923 337.222656,96.40625 C336.183589,97.9375077 335.664062,100.132798 335.664062,102.992188 Z M383.664062,116 L378.132812,116 L378.132812,100.0625 C378.132812,98.06249 377.730473,96.5703174 376.925781,95.5859375 C376.12109,94.6015576 374.843759,94.109375 373.09375,94.109375 C370.765613,94.109375 369.062505,94.7968681 367.984375,96.171875 C366.906245,97.5468819 366.367188,99.8515463 366.367188,103.085938 L366.367188,116 L360.859375,116 L360.859375,90.078125 L365.171875,90.078125 L365.945312,93.4765625 L366.226562,93.4765625 C367.007816,92.2421813 368.11718,91.2890659 369.554688,90.6171875 C370.992195,89.9453091 372.585929,89.609375 374.335938,89.609375 C380.554719,89.609375 383.664062,92.7734059 383.664062,99.1015625 L383.664062,116 Z M247.28125,154.695312 C247.28125,157.742203 246.179699,160.132804 243.976562,161.867188 C241.773426,163.601571 238.734394,164.46875 234.859375,164.46875 C230.984356,164.46875 227.812512,163.867194 225.34375,162.664062 L225.34375,157.367188 C226.906258,158.101566 228.566397,158.679685 230.324219,159.101562 C232.08204,159.52344 233.718742,159.734375 235.234375,159.734375 C237.453136,159.734375 239.089838,159.312504 240.144531,158.46875 C241.199224,157.624996 241.726562,156.492195 241.726562,155.070312 C241.726562,153.789056 241.242192,152.703129 240.273438,151.8125 C239.304683,150.921871 237.304703,149.867194 234.273438,148.648438 C231.148422,147.382806 228.945319,145.937508 227.664062,144.3125 C226.382806,142.687492 225.742188,140.734386 225.742188,138.453125 C225.742188,135.593736 226.757802,133.343758 228.789062,131.703125 C230.820323,130.062492 233.546858,129.242188 236.96875,129.242188 C240.250016,129.242188 243.515609,129.96093 246.765625,131.398438 L244.984375,135.96875 C241.937485,134.687494 239.218762,134.046875 236.828125,134.046875 C235.015616,134.046875 233.64063,134.441402 232.703125,135.230469 C231.76562,136.019535 231.296875,137.062494 231.296875,138.359375 C231.296875,139.250004 231.484373,140.011716 231.859375,140.644531 C232.234377,141.277347 232.851558,141.874997 233.710938,142.4375 C234.570317,143.000003 236.117176,143.742183 238.351562,144.664062 C240.8672,145.710943 242.710932,146.687495 243.882812,147.59375 C245.054693,148.500005 245.91406,149.523432 246.460938,150.664062 C247.007815,151.804693 247.28125,153.14843 247.28125,154.695312 Z M271.609375,164 L270.835938,160.601562 L270.554688,160.601562 C269.789059,161.804694 268.699226,162.749997 267.285156,163.4375 C265.871087,164.125003 264.257822,164.46875 262.445312,164.46875 C259.304672,164.46875 256.960945,163.687508 255.414062,162.125 C253.86718,160.562492 253.09375,158.195328 253.09375,155.023438 L253.09375,138.078125 L258.648438,138.078125 L258.648438,154.0625 C258.648438,156.046885 259.054683,157.535151 259.867188,158.527344 C260.679692,159.519536 261.953116,160.015625 263.6875,160.015625 C266.000012,160.015625 267.699213,159.324226 268.785156,157.941406 C269.871099,156.558587 270.414062,154.242204 270.414062,150.992188 L270.414062,138.078125 L275.945312,138.078125 L275.945312,164 L271.609375,164 Z M305.640625,164 L300.109375,164 L300.109375,148.015625 C300.109375,146.03124 299.734379,144.550786 298.984375,143.574219 C298.234371,142.597651 297.062508,142.109375 295.46875,142.109375 C293.343739,142.109375 291.785161,142.800774 290.792969,144.183594 C289.800776,145.566413 289.304688,147.867171 289.304688,151.085938 L289.304688,164 L283.796875,164 L283.796875,138.078125 L288.109375,138.078125 L288.882812,141.476562 L289.164062,141.476562 C289.882816,140.242181 290.925774,139.289066 292.292969,138.617188 C293.660163,137.945309 295.164054,137.609375 296.804688,137.609375 C300.789082,137.609375 303.429681,138.968736 304.726562,141.6875 L305.101562,141.6875 C305.867191,140.406244 306.945306,139.406254 308.335938,138.6875 C309.726569,137.968746 311.320304,137.609375 313.117188,137.609375 C316.210953,137.609375 318.464837,138.390617 319.878906,139.953125 C321.292976,141.515633 322,143.898421 322,147.101562 L322,164 L316.492188,164 L316.492188,148.015625 C316.492188,146.03124 316.113285,144.550786 315.355469,143.574219 C314.597652,142.597651 313.421883,142.109375 311.828125,142.109375 C309.687489,142.109375 308.121099,142.777337 307.128906,144.113281 C306.136714,145.449225 305.640625,147.499986 305.640625,150.265625 L305.640625,164 Z M351.53125,164 L346,164 L346,148.015625 C346,146.03124 345.625004,144.550786 344.875,143.574219 C344.124996,142.597651 342.953133,142.109375 341.359375,142.109375 C339.234364,142.109375 337.675786,142.800774 336.683594,144.183594 C335.691401,145.566413 335.195312,147.867171 335.195312,151.085938 L335.195312,164 L329.6875,164 L329.6875,138.078125 L334,138.078125 L334.773438,141.476562 L335.054688,141.476562 C335.773441,140.242181 336.816399,139.289066 338.183594,138.617188 C339.550788,137.945309 341.054679,137.609375 342.695312,137.609375 C346.679707,137.609375 349.320306,138.968736 350.617188,141.6875 L350.992188,141.6875 C351.757816,140.406244 352.835931,139.406254 354.226562,138.6875 C355.617194,137.968746 357.210929,137.609375 359.007812,137.609375 C362.101578,137.609375 364.355462,138.390617 365.769531,139.953125 C367.183601,141.515633 367.890625,143.898421 367.890625,147.101562 L367.890625,164 L362.382812,164 L362.382812,148.015625 C362.382812,146.03124 362.00391,144.550786 361.246094,143.574219 C360.488277,142.597651 359.312508,142.109375 357.71875,142.109375 C355.578114,142.109375 354.011724,142.777337 353.019531,144.113281 C352.027339,145.449225 351.53125,147.499986 351.53125,150.265625 L351.53125,164 Z M381.085938,164 L375.578125,164 L375.578125,138.078125 L381.085938,138.078125 L381.085938,164 Z M375.25,131.210938 C375.25,130.226558 375.519529,129.468753 376.058594,128.9375 C376.597659,128.406247 377.367183,128.140625 378.367188,128.140625 C379.335942,128.140625 380.089841,128.406247 380.628906,128.9375 C381.167971,129.468753 381.4375,130.226558 381.4375,131.210938 C381.4375,132.148442 381.167971,132.886716 380.628906,133.425781 C380.089841,133.964846 379.335942,134.234375 378.367188,134.234375 C377.367183,134.234375 376.597659,133.964846 376.058594,133.425781 C375.519529,132.886716 375.25,132.148442 375.25,131.210938 Z M398.617188,160.015625 C399.960944,160.015625 401.304681,159.80469 402.648438,159.382812 L402.648438,163.53125 C402.039059,163.796876 401.253911,164.01953 400.292969,164.199219 C399.332026,164.378907 398.335943,164.46875 397.304688,164.46875 C392.085911,164.46875 389.476562,161.718777 389.476562,156.21875 L389.476562,142.25 L385.9375,142.25 L385.9375,139.8125 L389.734375,137.796875 L391.609375,132.3125 L395.007812,132.3125 L395.007812,138.078125 L402.390625,138.078125 L402.390625,142.25 L395.007812,142.25 L395.007812,156.125 C395.007812,157.453132 395.33984,158.433591 396.003906,159.066406 C396.667972,159.699222 397.539057,160.015625 398.617188,160.015625 Z"/>
  </g>
</svg>
